<svg id="visual" viewBox="0 0 900 600" width="900" height="600" xmlns="http://www.w3.org/2000/svg" xmlns:xlink="http://www.w3.org/1999/xlink" version="1.1"><rect x="0" y="0" width="900" height="600" fill="#ffffff"></rect><g transform="translate(414.95472162706255 329.44215050724875)"><path d="M162.2 -203.9C208.8 -189.4 244.2 -140.1 248.6 -89.5C253 -38.9 226.4 13 197.2 52.1C168 91.3 136.3 117.6 103 131.8C69.8 146 34.9 148 -1.3 149.8C-37.4 151.5 -74.8 153 -102.1 136.9C-129.4 120.7 -146.5 86.9 -158.2 51.3C-169.9 15.7 -176.3 -21.8 -178.4 -71.1C-180.5 -120.5 -178.4 -181.6 -148 -201.4C-117.6 -221.1 -58.8 -199.6 -0.5 -198.9C57.8 -198.2 115.6 -218.4 162.2 -203.9" fill="#26477c"></path></g></svg>